<?xml version="1.0" encoding="UTF-8"?>
<svg id="Capa_1" data-name="Capa 1" xmlns="http://www.w3.org/2000/svg" version="1.1" viewBox="0 0 932.5 373.7">
  <defs>
    <style>
      .cls-1 {
        fill: #03aaf7;
      }

      .cls-1, .cls-2 {
        stroke-width: 0px;
      }

      .cls-2 {
        fill: #000;
      }
    </style>
  </defs>
  <path class="cls-1" d="M254.9,119.7c0,24.6,0,49.3,0,73.9,0,4.8.9,9.4,5.1,12.4,4,2.8,8.4,3.4,12.8,1,4.2-2.2,6.4-5.9,6.3-10.7,0-1.6,0-3.2,0-4.8,0-40.2,0-80.5,0-120.7,0-15.6,11.5-28.6,26.3-30,18.9-1.8,33,7.4,36.3,23.8.5,2.4.5,4.9.5,7.4,0,26.8,0,53.7,0,80.5,0,8.2,3,12.7,9.5,14.3,7.4,1.9,14.3-3.2,14.6-10.8.2-4.2,0-8.5,0-12.7.1-17.2,13.1-30,30.3-30,17.2,0,30.2,12.8,30.2,30.1,0,36,0,72,0,108,0,17.3-13,30.1-30.2,30.1-17.3,0-30.3-12.8-30.3-30,0-13.1,0-26.2,0-39.4,0-4.7-1-9.1-5.1-12-4-2.8-8.4-3.4-12.8-1-4.2,2.2-6.3,5.8-6.3,10.7,0,17.3,0,34.7,0,52,0,15.7-11.4,28.6-26.3,30-19,1.8-33.4-7.7-36.5-24.2-1-5.3-.1-10.8-.5-16.1-.6-9.2-7.6-14.5-15.8-12.1-4.8,1.4-8.1,5.5-8.3,10.6-.2,3.9,0,7.9,0,11.8-.1,17.3-12.9,29.5-30.2,30.2-18.1.7-29.9-11-32.5-24-.5-2.4-.5-4.9-.5-7.4,0-25.8,0-51.6,0-77.4,0-4.8-.7-9.5-4.7-12.6-3.8-3-8.3-3.7-12.8-1.5-4.4,2.2-6.8,5.8-6.7,10.9,0,1.9,0,3.8,0,5.7,0,45.8,0,91.6,0,137.3,0,15.7-11.4,28.6-26.2,30-18.1,1.8-32.2-7.6-35.5-23.8-.5-2.5-.5-5.2-.5-7.8,0-36.2,0-72.3,0-108.5,0-6-1.1-11.4-7.3-14.2-8-3.6-16.6,1.6-16.8,10.4-.2,10.3,0,20.7-.1,31.1-.1,15.3-11.6,28.2-26.2,29.6-16.8,1.6-30.9-8.3-33.9-24.2-.4-1.8-.4-3.8-.4-5.7,0-32.4,0-64.7,0-97.1,0-15.4,11.4-28.2,26.1-29.7,16.8-1.7,30.9,8.2,34,24.1,1.1,5.6.2,11.4.5,17,.6,9.3,7.9,14.8,16.2,12.1,5.1-1.6,8-5.9,8-12.2,0-19.8.1-39.7,0-59.5,0-12.7,4.9-22.6,16.3-28.2,11.5-5.6,23.3-5.1,34,2.5,7.7,5.5,11.8,13.2,12,22.7.2,10.6,0,21.3.1,31.9.2,9.8,7.3,15.5,15.8,13,5.4-1.5,8.4-5.9,8.4-12.4,0-26.2,0-52.5,0-78.7,0-11.6,5.3-20.7,15.5-26,20.7-10.6,48,.7,47.7,27.6-.3,24.1,0,48.1,0,72.2"/>
  <path class="cls-2" d="M840,83.5c16.7-1,32.3,3.1,47.2,10.1,8.3,3.9,15.8,9.2,22.6,15.4,8.1,7.5,8.8,18.6,1.8,28-5.6,7.6-13.1,12.3-23.1,11.7-3.9-.2-7.5-1.5-10.3-4.2-19-18-51.2-19.3-72.3-3.1-13.2,10.2-20.7,23.5-22.6,40.1-3.5,31,17.6,58,47.2,63.3,17.4,3.2,33.2-1.8,46.5-13.2,7.6-6.5,19.3-6,27.1-.8,7.2,4.9,11.3,11.7,12.1,20.2.6,5.8-1.7,11.1-6,14.8-14.8,12.6-31.6,21.7-50.9,25.1-20.9,3.6-41.3,1.7-61-6.3-30-12.1-51.3-33.3-61.1-64-11.1-34.6-6.2-67.6,16.3-96.8,17.8-23.1,41.7-35.9,70.5-39.9,2.7-.4,5.4-.9,8.2-.8,2.6,0,5.2,0,7.9,0"/>
  <path class="cls-2" d="M649.8,248.8c17.4,0,33.7.5,50-.2,12.9-.6,20,13.4,18.6,23.3-2,13.3-11.9,17.9-22.3,17.8-28.4-.3-56.8-.1-85.3,0-10.8,0-18.3-4.9-22.5-14.8-3.3-7.9-2.1-23.1,5.5-30.1,13.9-12.8,27.3-26.2,41.1-39.1,10-9.3,20-18.6,29.9-28.1,5.3-5.1,10.3-10.1,12.6-17.3,5.3-16.1-6.2-31.7-23.1-32.7-16.5-.9-27.9,12.2-28.2,26.9-.2,14.6-15.1,21.8-26.8,19.2-12.5-2.7-17.2-10.6-16.3-23.5,1-16.2,7-30.2,17.5-42.1,8.6-9.7,19.7-16,32.2-19,18.7-4.5,37.4-3.5,54.7,5.7,22.3,11.8,34.1,30.5,34.7,56.2.4,18-7,32.6-18.7,45.5-12.9,14.4-27.9,26.7-41.5,40.5-3.7,3.8-8,7.1-12.3,11.8"/>
  <path class="cls-2" d="M493.2,193.7c0-17.1,0-34.1,0-51.2,0-3.5-.6-5-4.7-5.3-11.7-.8-18.9-8.3-19.8-19.8-.8-10.6,5.4-20.2,14.9-23,1.9-.6,3.8-.6,5.6-.5,3.1.2,4.1-1.1,4-4.1-.1-7.1.3-14.3-.1-21.4-.6-9.6,4.6-15.4,12.3-19.3,10.1-5.2,23.1-2.6,30.9,5.6,3.2,3.3,4.7,7.3,4.8,11.8,0,7.6.2,15.2,0,22.7-.1,3.7,1.3,4.7,4.8,4.7,5.2,0,10.5-.7,15.7.5,8.5,2.1,14.4,9.6,14.6,18.3.2,6.5-.5,12.6-5.2,17.9-4.1,4.6-9.2,6.4-15,6.6-3.2.1-6.4.3-9.6,0-4-.3-5.3,1-5.3,5.1.2,14.9,0,29.7,0,44.6s.3,30-.1,45c-.2,7,6.2,13.5,13.5,13.3,13.4-.4,21.4,8.3,21.7,22,.2,8.3-1.7,15.5-8.2,21.1-2.5,2.2-5.3,3.5-8.6,3.7-12.6.6-25-.4-36.8-5.3-15.8-6.6-26-18.1-28.4-35.6-2.1-15.5-.4-31.1-.9-46.7-.1-3.6,0-7.3,0-10.9"/>
</svg>